<svg width="580" height="580" viewBox="0 0 580 580" fill="none" xmlns="http://www.w3.org/2000/svg">
<path opacity="0.2" d="M284.35 2.00488C288.036 0.901264 291.964 0.901263 295.65 2.00488L308.081 5.72656C310.845 6.55397 313.753 6.78336 316.612 6.39844L329.472 4.66699C333.285 4.15363 337.165 4.76802 340.633 6.43457L352.328 12.0547C354.928 13.3043 357.765 13.9857 360.649 14.0527L373.621 14.3545C377.468 14.4439 381.204 15.658 384.369 17.8467L395.041 25.2275C397.414 26.8685 400.109 27.9845 402.947 28.502L415.713 30.8291C419.498 31.5193 422.998 33.3033 425.781 35.96L435.168 44.9189C437.255 46.9108 439.742 48.4356 442.464 49.3906L454.708 53.6855C458.339 54.9593 461.517 57.2687 463.851 60.3281L471.72 70.6455C473.469 72.9393 475.687 74.834 478.227 76.2031L489.647 82.3613C493.034 84.1874 495.813 86.9657 497.639 90.3525L503.797 101.773C505.166 104.313 507.061 106.531 509.354 108.28L519.672 116.149C522.731 118.483 525.041 121.661 526.314 125.292L530.609 137.536C531.564 140.258 533.089 142.745 535.081 144.832L544.04 154.219C546.697 157.002 548.481 160.502 549.171 164.287L551.498 177.053C552.015 179.891 553.131 182.586 554.772 184.959L562.153 195.631C564.342 198.796 565.556 202.532 565.646 206.379L565.947 219.351C566.014 222.235 566.696 225.072 567.945 227.672L573.565 239.367C575.232 242.835 575.846 246.715 575.333 250.528L573.602 263.388C573.217 266.247 573.446 269.155 574.273 271.919L577.995 284.35C579.099 288.036 579.099 291.964 577.995 295.65L574.273 308.081C573.446 310.845 573.217 313.753 573.602 316.612L575.333 329.472C575.846 333.285 575.232 337.165 573.565 340.633L567.945 352.328C566.696 354.928 566.014 357.765 565.947 360.649L565.646 373.621C565.556 377.468 564.342 381.204 562.153 384.369L554.772 395.041C553.131 397.414 552.015 400.109 551.498 402.947L549.171 415.713C548.481 419.498 546.697 422.998 544.04 425.781L535.081 435.168C533.089 437.255 531.564 439.742 530.609 442.464L526.314 454.708C525.041 458.339 522.731 461.517 519.672 463.851L509.354 471.72C507.061 473.469 505.166 475.687 503.797 478.227L497.639 489.647C495.813 493.034 493.034 495.813 489.647 497.639L478.227 503.797C475.687 505.166 473.469 507.061 471.72 509.354L463.851 519.672C461.517 522.731 458.339 525.041 454.708 526.314L442.464 530.609C439.742 531.564 437.255 533.089 435.168 535.081L425.781 544.04C422.998 546.697 419.498 548.481 415.713 549.171L402.947 551.498C400.109 552.015 397.414 553.131 395.041 554.772L384.369 562.153C381.204 564.342 377.468 565.556 373.621 565.646L360.649 565.947C357.765 566.014 354.928 566.696 352.328 567.945L340.633 573.565C337.165 575.232 333.285 575.846 329.472 575.333L316.612 573.602C313.753 573.217 310.845 573.446 308.081 574.273L295.65 577.995C291.964 579.099 288.036 579.099 284.35 577.995L271.919 574.273C269.155 573.446 266.247 573.217 263.388 573.602L250.528 575.333C246.715 575.846 242.835 575.232 239.367 573.565L227.672 567.945C225.072 566.696 222.235 566.014 219.351 565.947L206.379 565.646C202.532 565.556 198.796 564.342 195.631 562.153L184.959 554.772C182.586 553.131 179.891 552.015 177.053 551.498L164.287 549.171C160.502 548.481 157.002 546.697 154.219 544.04L144.832 535.081C142.745 533.089 140.258 531.564 137.536 530.609L125.292 526.314C121.661 525.041 118.483 522.731 116.149 519.672L108.28 509.354C106.531 507.061 104.313 505.166 101.773 503.797L90.3525 497.639C86.9657 495.813 84.1874 493.034 82.3613 489.647L76.2031 478.227C74.834 475.687 72.9393 473.469 70.6455 471.72L60.3281 463.851C57.2687 461.517 54.9593 458.339 53.6855 454.708L49.3906 442.464C48.4356 439.742 46.9108 437.255 44.9189 435.168L35.96 425.781C33.3033 422.998 31.5193 419.498 30.8291 415.713L28.502 402.947C27.9845 400.109 26.8685 397.414 25.2275 395.041L17.8467 384.369C15.658 381.204 14.4439 377.468 14.3545 373.621L14.0527 360.649C13.9857 357.765 13.3043 354.928 12.0547 352.328L6.43457 340.633C4.76802 337.165 4.15363 333.285 4.66699 329.472L6.39844 316.612C6.78336 313.753 6.55397 310.845 5.72656 308.081L2.00488 295.65C0.901264 291.964 0.901263 288.036 2.00488 284.35L5.72656 271.919C6.55397 269.155 6.78336 266.247 6.39844 263.388L4.66699 250.528C4.15363 246.715 4.76802 242.835 6.43457 239.367L12.0547 227.672C13.3043 225.072 13.9857 222.235 14.0527 219.351L14.3545 206.379C14.4439 202.532 15.658 198.796 17.8467 195.631L25.2275 184.959C26.8685 182.586 27.9845 179.891 28.502 177.053L30.8291 164.287C31.5193 160.502 33.3033 157.002 35.96 154.219L44.9189 144.832C46.9108 142.745 48.4356 140.258 49.3906 137.536L53.6855 125.292C54.9593 121.661 57.2687 118.483 60.3281 116.149L70.6455 108.28C72.9393 106.531 74.834 104.313 76.2031 101.773L82.3613 90.3525C84.1874 86.9657 86.9657 84.1874 90.3525 82.3613L101.773 76.2031C104.313 74.834 106.531 72.9393 108.28 70.6455L116.149 60.3281C118.483 57.2687 121.661 54.9593 125.292 53.6855L137.536 49.3906C140.258 48.4356 142.745 46.9108 144.832 44.9189L154.219 35.96C157.002 33.3033 160.502 31.5193 164.287 30.8291L177.053 28.502C179.891 27.9845 182.586 26.8685 184.959 25.2275L195.631 17.8467C198.796 15.658 202.532 14.4439 206.379 14.3545L219.351 14.0527C222.235 13.9857 225.072 13.3043 227.672 12.0547L239.367 6.43457C242.835 4.76802 246.715 4.15363 250.528 4.66699L263.388 6.39844C266.247 6.78336 269.155 6.55397 271.919 5.72656L284.35 2.00488Z" stroke="#2B2B2B" stroke-width="0.6"/>
</svg>
